<mxfile host="app.diagrams.net" modified="2021-12-03T19:27:36.449Z" agent="5.0 (Windows NT 10.0; Win64; x64) AppleWebKit/537.36 (KHTML, like Gecko) Chrome/96.0.4664.45 Safari/537.36" etag="DrR3vDFR250x0AzEHRPl" version="15.9.1" type="github">
  <diagram id="ebW55hOoTfFtjIPACesg" name="Page-1">
    <mxGraphModel dx="1497" dy="1971" grid="1" gridSize="10" guides="1" tooltips="1" connect="1" arrows="1" fold="1" page="1" pageScale="1" pageWidth="827" pageHeight="1169" math="0" shadow="0">
      <root>
        <mxCell id="0" />
        <mxCell id="1" parent="0" />
        <mxCell id="VXVAvLSQ9szCPly9kEG5-1" value="" style="ellipse;html=1;shape=endState;fillColor=#000000;strokeColor=#ff0000;" vertex="1" parent="1">
          <mxGeometry x="30" y="-1010" width="30" height="30" as="geometry" />
        </mxCell>
        <mxCell id="VXVAvLSQ9szCPly9kEG5-3" value="" style="html=1;verticalAlign=bottom;endArrow=block;rounded=0;" edge="1" parent="1" source="VXVAvLSQ9szCPly9kEG5-1">
          <mxGeometry width="80" relative="1" as="geometry">
            <mxPoint x="60" y="-995" as="sourcePoint" />
            <mxPoint x="140" y="-995" as="targetPoint" />
          </mxGeometry>
        </mxCell>
        <mxCell id="VXVAvLSQ9szCPly9kEG5-4" value="Set Name" style="swimlane;rounded=1;" vertex="1" parent="1">
          <mxGeometry x="140" y="-1020" width="110" height="50" as="geometry" />
        </mxCell>
        <mxCell id="VXVAvLSQ9szCPly9kEG5-41" value="do: display name &lt;br&gt;input box" style="text;html=1;align=left;verticalAlign=middle;resizable=0;points=[];autosize=1;strokeColor=none;fillColor=none;" vertex="1" parent="VXVAvLSQ9szCPly9kEG5-4">
          <mxGeometry y="20" width="110" height="30" as="geometry" />
        </mxCell>
        <mxCell id="VXVAvLSQ9szCPly9kEG5-5" value="isNameValid()" style="html=1;verticalAlign=bottom;endArrow=block;rounded=0;" edge="1" parent="1" source="VXVAvLSQ9szCPly9kEG5-4">
          <mxGeometry x="1" y="15" width="80" relative="1" as="geometry">
            <mxPoint x="250" y="-995" as="sourcePoint" />
            <mxPoint x="350" y="-995" as="targetPoint" />
            <mxPoint as="offset" />
          </mxGeometry>
        </mxCell>
        <mxCell id="VXVAvLSQ9szCPly9kEG5-10" value="" style="rhombus;whiteSpace=wrap;html=1;rounded=0;" vertex="1" parent="1">
          <mxGeometry x="350" y="-1006.25" width="20" height="22.5" as="geometry" />
        </mxCell>
        <mxCell id="VXVAvLSQ9szCPly9kEG5-11" value="" style="endArrow=classic;html=1;rounded=0;exitX=0.5;exitY=1;exitDx=0;exitDy=0;entryX=0.5;entryY=1;entryDx=0;entryDy=0;" edge="1" parent="1" source="VXVAvLSQ9szCPly9kEG5-10" target="VXVAvLSQ9szCPly9kEG5-4">
          <mxGeometry width="50" height="50" relative="1" as="geometry">
            <mxPoint x="280" y="-930" as="sourcePoint" />
            <mxPoint x="330" y="-980" as="targetPoint" />
            <Array as="points">
              <mxPoint x="360" y="-930" />
              <mxPoint x="195" y="-930" />
            </Array>
          </mxGeometry>
        </mxCell>
        <mxCell id="VXVAvLSQ9szCPly9kEG5-14" value="false" style="text;html=1;strokeColor=none;fillColor=none;align=center;verticalAlign=middle;whiteSpace=wrap;rounded=0;" vertex="1" parent="1">
          <mxGeometry x="310" y="-970" width="60" height="30" as="geometry" />
        </mxCell>
        <mxCell id="VXVAvLSQ9szCPly9kEG5-15" value="Select Server" style="swimlane;rounded=1;" vertex="1" parent="1">
          <mxGeometry x="450" y="-1035" width="115" height="80" as="geometry" />
        </mxCell>
        <mxCell id="VXVAvLSQ9szCPly9kEG5-23" value="do: display server &lt;br&gt;options" style="text;html=1;align=left;verticalAlign=middle;resizable=0;points=[];autosize=1;strokeColor=none;fillColor=none;" vertex="1" parent="VXVAvLSQ9szCPly9kEG5-15">
          <mxGeometry x="5" y="35" width="110" height="30" as="geometry" />
        </mxCell>
        <mxCell id="VXVAvLSQ9szCPly9kEG5-19" value="" style="endArrow=classic;html=1;rounded=0;exitX=1;exitY=0.5;exitDx=0;exitDy=0;entryX=0;entryY=0.5;entryDx=0;entryDy=0;" edge="1" parent="1" source="VXVAvLSQ9szCPly9kEG5-10" target="VXVAvLSQ9szCPly9kEG5-15">
          <mxGeometry width="50" height="50" relative="1" as="geometry">
            <mxPoint x="370" y="-930" as="sourcePoint" />
            <mxPoint x="420" y="-980" as="targetPoint" />
          </mxGeometry>
        </mxCell>
        <mxCell id="VXVAvLSQ9szCPly9kEG5-21" value="true" style="text;html=1;strokeColor=none;fillColor=none;align=center;verticalAlign=middle;whiteSpace=wrap;rounded=0;" vertex="1" parent="1">
          <mxGeometry x="374" y="-1020" width="60" height="30" as="geometry" />
        </mxCell>
        <mxCell id="VXVAvLSQ9szCPly9kEG5-24" value="" style="ellipse;html=1;shape=endState;fillColor=#000000;strokeColor=#ff0000;rounded=1;" vertex="1" parent="1">
          <mxGeometry x="770" y="-1010" width="30" height="30" as="geometry" />
        </mxCell>
        <mxCell id="VXVAvLSQ9szCPly9kEG5-25" value="true" style="html=1;verticalAlign=bottom;endArrow=block;rounded=0;entryX=0;entryY=0.5;entryDx=0;entryDy=0;" edge="1" parent="1" target="VXVAvLSQ9szCPly9kEG5-24">
          <mxGeometry width="80" relative="1" as="geometry">
            <mxPoint x="680" y="-995" as="sourcePoint" />
            <mxPoint x="640" y="-990" as="targetPoint" />
          </mxGeometry>
        </mxCell>
        <mxCell id="VXVAvLSQ9szCPly9kEG5-26" value="" style="rhombus;whiteSpace=wrap;html=1;rounded=0;" vertex="1" parent="1">
          <mxGeometry x="660" y="-1006.25" width="20" height="22.5" as="geometry" />
        </mxCell>
        <mxCell id="VXVAvLSQ9szCPly9kEG5-28" value="" style="html=1;verticalAlign=bottom;endArrow=block;rounded=0;exitX=1.017;exitY=0.177;exitDx=0;exitDy=0;exitPerimeter=0;entryX=0;entryY=0.5;entryDx=0;entryDy=0;" edge="1" parent="1" source="VXVAvLSQ9szCPly9kEG5-23" target="VXVAvLSQ9szCPly9kEG5-26">
          <mxGeometry width="80" relative="1" as="geometry">
            <mxPoint x="560" y="-1000" as="sourcePoint" />
            <mxPoint x="640" y="-1000" as="targetPoint" />
          </mxGeometry>
        </mxCell>
        <mxCell id="VXVAvLSQ9szCPly9kEG5-31" value="" style="endArrow=none;html=1;rounded=0;entryX=0.5;entryY=1;entryDx=0;entryDy=0;" edge="1" parent="1" target="VXVAvLSQ9szCPly9kEG5-15">
          <mxGeometry width="50" height="50" relative="1" as="geometry">
            <mxPoint x="360" y="-930" as="sourcePoint" />
            <mxPoint x="430" y="-850" as="targetPoint" />
            <Array as="points">
              <mxPoint x="508" y="-930" />
            </Array>
          </mxGeometry>
        </mxCell>
        <mxCell id="VXVAvLSQ9szCPly9kEG5-32" value="&quot;back&quot; button clicked" style="text;html=1;strokeColor=none;fillColor=none;align=center;verticalAlign=middle;whiteSpace=wrap;rounded=0;" vertex="1" parent="1">
          <mxGeometry x="360" y="-940" width="150" height="30" as="geometry" />
        </mxCell>
        <mxCell id="VXVAvLSQ9szCPly9kEG5-34" value="" style="endArrow=classic;html=1;rounded=0;exitX=0.5;exitY=0;exitDx=0;exitDy=0;" edge="1" parent="1" source="VXVAvLSQ9szCPly9kEG5-26">
          <mxGeometry width="50" height="50" relative="1" as="geometry">
            <mxPoint x="520" y="-930" as="sourcePoint" />
            <mxPoint x="670" y="-1050" as="targetPoint" />
          </mxGeometry>
        </mxCell>
        <mxCell id="VXVAvLSQ9szCPly9kEG5-35" value="Display Error" style="swimlane;rounded=1;" vertex="1" parent="1">
          <mxGeometry x="612.5" y="-1130" width="115" height="80" as="geometry" />
        </mxCell>
        <mxCell id="VXVAvLSQ9szCPly9kEG5-36" value="do: display &lt;br&gt;connection error" style="text;html=1;align=left;verticalAlign=middle;resizable=0;points=[];autosize=1;strokeColor=none;fillColor=none;" vertex="1" parent="VXVAvLSQ9szCPly9kEG5-35">
          <mxGeometry x="5" y="35" width="100" height="30" as="geometry" />
        </mxCell>
        <mxCell id="VXVAvLSQ9szCPly9kEG5-37" value="false" style="text;html=1;strokeColor=none;fillColor=none;align=center;verticalAlign=middle;whiteSpace=wrap;rounded=0;" vertex="1" parent="1">
          <mxGeometry x="660" y="-1040" width="60" height="30" as="geometry" />
        </mxCell>
        <mxCell id="VXVAvLSQ9szCPly9kEG5-38" value="server is selected" style="text;html=1;strokeColor=none;fillColor=none;align=center;verticalAlign=middle;whiteSpace=wrap;rounded=0;" vertex="1" parent="1">
          <mxGeometry x="565" y="-1020" width="100" height="30" as="geometry" />
        </mxCell>
        <mxCell id="VXVAvLSQ9szCPly9kEG5-39" value="" style="endArrow=classic;html=1;rounded=0;exitX=0;exitY=0.5;exitDx=0;exitDy=0;entryX=0.462;entryY=-0.001;entryDx=0;entryDy=0;entryPerimeter=0;" edge="1" parent="1" source="VXVAvLSQ9szCPly9kEG5-35" target="VXVAvLSQ9szCPly9kEG5-15">
          <mxGeometry width="50" height="50" relative="1" as="geometry">
            <mxPoint x="550" y="-990" as="sourcePoint" />
            <mxPoint x="600" y="-1040" as="targetPoint" />
            <Array as="points">
              <mxPoint x="503" y="-1090" />
            </Array>
          </mxGeometry>
        </mxCell>
        <mxCell id="VXVAvLSQ9szCPly9kEG5-40" value="OK button clicked" style="text;html=1;strokeColor=none;fillColor=none;align=center;verticalAlign=middle;whiteSpace=wrap;rounded=0;" vertex="1" parent="1">
          <mxGeometry x="500" y="-1120" width="100" height="30" as="geometry" />
        </mxCell>
        <mxCell id="VXVAvLSQ9szCPly9kEG5-42" value="PLAYER" style="text;html=1;strokeColor=none;fillColor=none;align=center;verticalAlign=middle;whiteSpace=wrap;rounded=0;" vertex="1" parent="1">
          <mxGeometry x="30" y="-1130" width="60" height="30" as="geometry" />
        </mxCell>
      </root>
    </mxGraphModel>
  </diagram>
</mxfile>
